Coordinates
version=1
nRows=12
nColumns=24
inDegrees=yes

Units are S.I. units (second, meters, Newtons, ...)
Angles are in degrees.

endheader
time	pelvis_tilt	pelvis_list	pelvis_rotation	pelvis_tx	pelvis_ty	pelvis_tz	hip_flexion_r	hip_adduction_r	hip_rotation_r	knee_angle_r	ankle_angle_r	subtalar_angle_r	mtp_angle_r	hip_flexion_l	hip_adduction_l	hip_rotation_l	knee_angle_l	ankle_angle_l	subtalar_angle_l	mtp_angle_l	lumbar_extension	lumbar_bending	lumbar_rotation
      3.95000000	     24.46213169	      3.86057882	      0.10478151	      0.90105754	      0.96178205	      0.01272948	    -38.01243275	     -5.37424690	     -5.34105416	    -32.01028304	     -4.82668416	     -6.25846670	     45.09279433	     -8.13870449	      5.25739272	    -12.44875757	    -12.24615523	     -0.58448252	      6.08733426	     24.92799916	    -31.27722784	     -7.65521049	     -1.96392264
      3.95500000	     24.39870853	      4.15133803	     -0.04585425	      0.90753384	      0.96238721	      0.01155804	    -37.12920857	     -5.94060761	     -5.55779038	    -33.73100879	     -6.88205357	     -7.14355678	     48.12545606	     -8.43076724	      5.67147062	    -12.25515627	    -12.43281555	      0.16092861	      6.19434188	     22.87499282	    -31.14296687	     -8.02685139	     -2.03754675
      3.96000000	     24.37107909	      4.44006165	     -0.32116271	      0.91396156	      0.96306082	      0.01051149	    -36.21481949	     -6.59740957	     -5.65643224	    -35.52654041	     -8.45725462	     -7.44026063	     48.03046082	     -8.83235179	      6.11653282	    -12.20535414	    -12.43849080	      0.49593675	      6.14237289	     22.82692774	    -31.03469170	     -8.44717083	     -1.96828588
      3.96500000	     24.34625501	      4.70714814	     -0.57260431	      0.92036362	      0.96377787	      0.00946591	    -35.31146629	     -7.20931415	     -5.69444219	    -37.22545408	     -9.98350120	     -7.67494878	     47.93970272	     -9.25013821	      6.53871946	    -12.14335361	    -12.41020350	      0.85835906	      6.08403115	     22.73978190	    -30.93105932	     -8.83354015	     -1.94671392
      3.97000000	     24.28506995	      4.89309218	     -0.79070972	      0.92658060	      0.96447648	      0.00838770	    -34.32818078	     -7.71639213	     -5.67248534	    -38.89548111	    -11.43061183	     -8.14138059	     47.90456288	     -9.63188261	      6.88216346	    -11.96442205	    -12.35595750	      1.28638047	      5.88625908	     22.20850134	    -30.80425018	     -9.12113133	     -1.85216862
      3.97500000	     24.27015077	      5.09965252	     -1.09465101	      0.93289137	      0.96524910	      0.00744527	    -33.38811731	     -8.28982261	     -5.57544194	    -40.51200602	    -12.55361080	     -8.32533969	     47.77906862	    -10.13381772	      7.26278638	    -11.95151692	    -12.15866519	      1.63449035	      5.94511278	     21.91533292	    -30.70144797	     -9.46711620	     -1.72938577
      3.98000000	     24.28095775	      5.25571017	     -1.36276870	      0.93909886	      0.96609378	      0.00647601	    -32.47416505	     -8.78564696	     -5.45441280	    -42.03928722	    -13.58848102	     -8.43734990	     47.61796476	    -10.65310473	      7.58527278	    -11.95488079	    -11.96769043	      1.91617790	      5.95239264	     21.74629196	    -30.63883059	     -9.74180783	     -1.62510220
      3.98500000	     24.27366520	      5.35287518	     -1.65070939	      0.94519398	      0.96693090	      0.00555369	    -31.50529970	     -9.21467117	     -5.23233852	    -43.53680555	    -14.35528363	     -8.61652692	     47.39744651	    -11.16342218	      7.85696424	    -11.95235746	    -11.74101676	      2.21303782	      5.91970332	     21.53422914	    -30.55914437	     -9.96358706	     -1.44399698
      3.99000000	     24.20865490	      5.39969202	     -1.88376114	      0.95116487	      0.96769322	      0.00460503	    -30.44245588	     -9.55485028	     -5.00584430	    -45.06516910	    -14.49657455	     -8.36608931	     44.37613621	    -11.58530065	      8.05869487	    -11.87461080	    -11.59545300	      3.02371046	      6.23301810	     18.32235208	    -30.43368290	    -10.11264133	     -1.27692324
      3.99500000	     24.24022208	      5.38782284	     -2.19515152	      0.95714358	      0.96864905	      0.00379312	    -29.49305909	     -9.84938812	     -4.66015595	    -46.41721138	    -14.87202364	     -8.47334284	     44.26712765	    -12.18130026	      8.22792663	    -11.96821842	    -11.25848960	      3.22465292	      6.23967290	     18.30554456	    -30.39497781	    -10.23409181	     -1.02733546
      4.00000000	     24.24001608	      5.34569554	     -2.49244667	      0.96302530	      0.96954779	      0.00298114	    -28.48775191	    -10.09325017	     -4.30760507	    -47.74358900	    -14.96791198	     -8.58676640	     44.10455541	    -12.73468759	      8.36629417	    -12.04995024	    -10.92996660	      3.45089231	      6.23736715	     18.26401687	    -30.33210711	    -10.31713427	     -0.76565604
      4.00500000	     24.21050033	      5.26154047	     -2.78073312	      0.96881612	      0.97042945	      0.00219492	    -27.43307672	    -10.27156506	     -3.92808775	    -49.02573204	    -14.85429624	     -8.64017806	     43.86466829	    -13.24510334	      8.45706944	    -12.14104380	    -10.62209755	      3.67849522	      6.25897385	     18.19366482	    -30.24475498	    -10.35278428	     -0.48992696
